Patient4_TMGait_0pt5_02_right_18_EMG.mot
version=1
nRows=39
nColumns=33
inDegrees=no
endheader
time	1LAddLong	2LGlutMax	3LGlutMed	4LIliopsoas	5LSemiMemb	6LBicFemLong	7LRecFem	8LVastMed	9LVastLat	10LGasMed	11LTibAnt	12lTibPost	13LPeroneusLong	14LSol	15LExtDigLong	16LFlexDigLong	17RAddLong	18RGlutMax	19RGlutMed	20RIliopsoas	21RSemiMemb	22RBicFemLong	23RRecFem	24RVastMed	25RVastLat	26RGasMed	27RTibAnt	28RTibPost	29RPeroneusLong	30RSol	31RExtDigLong	32RFlexDigLong
24.783	0.010529	-0.019226	0.052032	0.010986	-0.006561	-0.14526	-0.028381	0.003204	0.17807	-0.029297	0.11292	0.001221	0.075836	0.16266	-0.14267	0.010223	-0.02594	-0.04837	-0.15259	0.12955	0.048218	-0.029602	0.050812	-0.10056	0.003967	0.000458	0.75394	-0.004272	-0.26367	-0.012512	0.007935	-0.004425
24.784	-0.001221	-0.016479	0.112	-0.01358	-0.017548	-0.13687	-0.010529	0.00473	0.089417	-0.05722	-0.19257	0.003662	0.39612	-0.00351	-0.21744	-0.020905	-0.010071	-0.017242	-0.20737	0.21133	0.048981	-0.001526	0.10651	-0.05661	0.000153	0.001984	0.80795	-0.001526	-0.16541	0.009155	0.00946	-0.004272
24.785	0.013428	0.003967	0.014954	-0.016327	0.012512	-0.12207	0.007324	-0.003204	0.044861	-0.19714	-0.14358	0.010223	0.34637	0.011749	-0.061798	0.013428	-0.013123	-0.018768	-0.12466	0.18463	-0.010834	0.029755	0.048065	-0.039063	0.004578	0.002289	0.46982	-0.002747	-0.055084	0.036926	0.010529	-0.015564
24.786	0.01358	0.007477	0.028839	-0.012207	-0.06485	-0.12817	0.012054	0.008698	0.007477	-0.19333	-0.052948	-0.006561	0.44525	0.029602	0.13962	0.10788	0.000305	0.041504	-0.097198	0.060883	-0.076294	-0.003357	0.121	-0.080414	-0.001068	-0.003815	-0.33844	-0.00412	-0.004425	0.13184	0.008392	-0.010529
24.787	0.017395	-0.037231	0.017853	-0.002289	-0.090027	-0.069122	-0.008087	-0.014496	0.025177	0.159	0.012665	0.006561	-0.65552	-0.11475	0.20203	-0.10147	0.011902	0.00351	-0.23605	0.12848	-0.09491	-0.034332	0.12726	-0.043335	0.010376	-0.010834	-0.39368	-0.003357	0.069733	0.1442	0.010986	-0.016479
24.788	0.023956	-0.030975	0.082245	0.009155	0.069427	-0.005493	0.010529	-0.001068	0.015564	0.62408	-0.002747	0.007477	-0.52536	-0.11154	0.19028	-0.10696	0.019073	0.025787	-0.18982	0.28839	-0.16174	-0.043335	0.1506	-0.070953	0.004425	0.000153	-0.3273	-0.003967	0.28229	0.080414	0.00824	-0.011444
24.789	0.02655	-0.037384	-0.006561	0.020142	0.14664	-0.036011	-0.025635	0.000763	0.020599	0.33676	-0.033875	-0.008392	0.030823	0.060272	0.22263	0.21286	0.011597	-0.010986	-0.21698	0.25253	-0.20187	0.015106	0.20432	-0.083923	0.007324	0.006256	-0.16998	-0.009766	0.032349	0.002441	0.012817	-0.00473
24.79	0.013123	-0.023193	-0.044098	0.018463	0.12116	0.016174	-0.016479	0.003662	0.014801	-0.17227	-0.017548	-0.026398	0.22125	0.068817	0.12894	0.04776	-0.016174	-0.024109	-0.29068	0.099487	-0.086365	0.028992	0.26062	-0.086517	0.000763	0.006866	-0.12619	-0.007629	-0.082245	-0.091858	0.008087	-0.011444
24.791	0.004578	0.003815	-0.027924	0.016022	0.068054	0.074463	-0.019226	0.007935	0.009308	0.61935	-0.008087	-0.00946	0.10208	0.036926	0.054779	-0.11231	-0.019379	0.013275	0.034943	0.024719	0.13931	0.028839	0.21973	-0.12283	0.000916	0.000458	-0.51102	-0.006104	0.18753	-0.090942	0.014343	0.002289
24.792	0.002136	0.031281	-0.00473	0.00473	0.023499	0.067902	0.000305	0.010376	0.00885	1.2143	-0.006409	-0.06073	0.07843	-0.027313	-0.003204	-0.067291	-0.018158	0.013428	0.023651	-0.031128	0.054626	0.007629	0.082703	-0.20905	-0.021515	-0.005951	-0.47943	-0.007629	0.10819	-0.020294	0.008392	-0.00946
24.793	0.010986	0.02121	0.019073	0.002747	0.018616	0.070038	0.000458	0.006561	0.016022	0.81848	0.002899	0.096283	0.15533	-0.52994	-0.012817	-0.040436	-0.016785	-0.03006	0.03479	-0.058441	-0.008087	0.016785	-0.060577	-0.20599	-0.001678	-0.006561	-0.42816	-0.011597	-0.32028	0.005951	0.011597	-0.012512
24.794	0.01297	0.036926	0.028992	-0.003357	0.020294	0.112	0.0177	0.003204	0.003967	0.57754	-0.003967	0.074768	0.095215	-0.43076	0.00412	-0.006866	-0.013428	-0.053864	-0.024719	-0.028076	-0.022583	-0.002594	-0.087891	-0.20187	-0.005493	-0.00061	-0.32623	-0.004272	-0.47943	0.044403	0.013123	0.005035
24.795	-0.002289	0.01358	-0.067444	0.001831	0.075378	0.04364	0.045929	-0.002441	-0.011292	0.54962	-0.015717	-0.047302	-0.1178	-0.37506	-0.016785	0.044098	-0.00824	-0.016174	-0.16113	-0.033112	-0.039368	0.011749	0.051727	-0.19898	0.001678	0.005341	-0.16327	-0.003204	-0.27588	-0.001831	0.013123	-0.001526
24.796	0.008392	0.054016	-0.077209	0.010071	0.075073	-0.026245	0.058289	0.012665	-0.014954	-0.36621	0.002899	-0.012054	-0.085297	-0.44479	-0.022583	0.10452	-0.003662	0.013733	-0.19974	-0.033875	-0.050659	0.005646	0.074615	-0.19501	-0.016479	0.017548	-0.058746	-0.011597	0.036774	-0.086975	0.014191	0.00412
24.797	0.007477	0.016632	-0.017395	0.023956	0.032196	-0.021057	0.045624	0.006714	-0.02655	-0.40039	0.016022	0.022736	0.11154	-0.30746	-0.001526	-0.42358	-0.007935	0.040588	-0.10101	-0.025787	-0.036011	0.015869	0.057678	-0.1915	-0.025482	0.019836	-0.041962	-0.005341	0.27496	-0.14069	0.013885	0.001831
24.798	0.007935	0.034637	-0.061493	0.007629	0.040436	-0.019836	-0.019684	0.000305	0.00473	0.036774	0.00412	-0.016327	-0.015564	-0.023499	0.001678	0.068665	-0.009766	-0.026398	-0.065918	-0.023346	-0.00061	0.006256	0.095367	-0.15503	-0.022583	0.017242	0.28839	-0.004272	0.10681	-0.13275	0.0177	0.001068
24.799	0.014038	0.022888	0.027313	0.012512	0.037842	-0.018768	-0.040283	0.014954	-0.004883	-0.12009	-0.011292	-0.027618	-0.21439	-0.032654	-0.010834	0.081482	-0.009155	-0.02594	-0.078583	-0.012054	0.0177	-0.004578	0.19592	-0.066071	-0.028534	0.007477	0.42252	-0.00946	0.55115	0.004578	0.015869	0
24.8	0.022125	-0.018768	0.044098	0.019379	0.044861	0.005798	-0.079193	0.010681	-0.008087	-0.53802	0.007019	-0.027161	-0.40756	-0.13794	0.007629	0.041809	-0.005188	0.001984	-0.12558	-0.021973	0.007324	0.013123	0.22888	-0.040283	-0.016022	-0.004272	0.20538	-0.006104	0.78629	0.093079	0.014954	-0.00473
24.801	0.005951	-0.040131	0.14664	0.00473	0.027466	0.081482	-0.097351	0.02243	0.003967	-0.55939	0.007629	0.003815	-0.2626	-0.49744	-0.080872	0.055237	0.007935	0.005646	-0.055847	-0.1152	0.02594	-0.002441	0.18021	-0.071869	-0.012817	0.007324	0.062866	-0.010223	0.32791	0.092926	0.014191	-0.004425
24.802	0.005798	-0.071411	0.053558	0.005341	0.024414	0.12528	-0.12024	0.011902	0.030518	-0.51117	-0.012665	0.031738	0.12878	-0.077362	-0.016785	0.03891	0.002136	-0.047913	-0.028229	-0.14023	0.044556	0.002899	0.010986	-0.075073	0.000153	0.012054	-0.029907	-0.006409	-0.85678	0.035706	0.01236	-0.003052
24.803	0.02655	-0.070953	0.065308	-0.004883	0.015869	0.028381	-0.041962	-0.002594	0.063477	-0.60211	-0.00824	0.047455	0.016937	0.5777	-0.05722	-0.020142	-0.002747	-0.00824	0.07431	-0.16174	-0.066071	0.018921	-0.023651	-0.073395	0.021667	0.011444	-0.017395	-0.010223	-0.75607	0.01297	0.01709	-0.011597
24.804	-0.057678	-0.084076	0.1265	-0.000916	-0.015869	0.062103	0.079956	-0.006714	-0.026398	-0.41718	0.028534	-0.018005	-0.11887	0.80017	-0.090637	-0.048218	0.003662	0.062714	0.09552	-0.039673	-0.11871	0.027618	-0.10712	-0.092316	0.014191	0.002289	0.25009	-0.012817	-0.43015	0.12589	0.019989	-0.007935
24.805	0.04776	-0.085907	0.065765	0.006104	-0.007324	0.10773	0.093842	-0.009308	-0.098114	-0.36041	0.024872	0.021057	0.21713	0.48004	-0.034027	-0.04303	0.01236	0.066681	0.14114	0.16876	-0.086365	0.00824	-0.14084	-0.065308	-0.003662	0.007935	0.36911	-0.010376	-0.35889	0.11139	0.016632	-0.006409
24.806	-0.004578	-0.08255	-0.004578	0.011444	-0.034027	0.16937	0.06424	0.008392	0.001526	-0.43671	0.005493	-0.025787	0.4483	0.16983	-0.013123	-0.037231	0.002441	0.08728	0.19012	0.085449	-0.035095	0.014954	-0.18982	-0.051727	0.033722	0.008087	0.22888	-0.009308	0.16068	0.089111	0.014496	-0.018005
24.807	-0.007019	-0.083771	0.001526	0.005341	-0.024872	0.0914	0.021973	0.003815	0.016327	-0.39566	-0.002136	-0.014648	0.19134	-0.051727	-0.048065	0.005798	0.010071	0.082855	0.4985	-0.031433	0.016937	0.034027	-0.1767	-0.058594	0.027161	0.014496	-0.02243	-0.005341	0.38605	0.10925	0.01297	-0.009003
24.808	-0.003662	-0.069427	0.03418	-0.010376	0.033875	-0.21179	-0.017548	-0.014343	0.01358	-0.21469	-0.017395	0.005798	-0.18021	-0.067749	-0.10956	0.026398	-0.004578	0.020294	0.81345	-0.056	-0.051117	0.007324	-0.17532	-0.060883	0.032043	0.020599	-0.20538	-0.009766	0.31281	0.009613	0.014343	-0.005188
24.809	0.01709	-0.012054	0.033875	-0.024719	0.081024	-0.076599	-0.10452	-0.005493	-0.01709	0.047302	-0.030365	0.00061	0.23895	0.21668	-0.059662	0.032654	-0.000458	0.027313	0.495	0.053864	-0.09613	-0.006714	-0.17395	-0.037842	0.019836	0.020294	-0.36758	-0.004425	-0.08728	-0.050812	0.013733	0.000305
24.81	0.007935	0.023499	-0.001526	0.02243	0.059814	0.034943	-0.078583	-0.004272	-0.02121	0.16708	-0.026703	-0.05661	0.14771	0.30243	0.048523	0.001221	0.00351	0.008698	0.055084	0.074005	-0.091248	0.012054	-0.13794	-0.039215	0.036469	0.012665	-0.26535	-0.00473	-0.19531	-0.030365	0.012512	0.000153
24.811	0.010223	-0.041046	-0.074005	0.017395	0.027008	-0.00412	-0.002899	0.001221	-0.04776	0.25223	0.002441	0.007172	-0.060883	-0.023193	0.021362	-0.00351	0.015411	-0.01709	-0.29953	0.065155	-0.067291	0.00412	-0.13763	-0.045929	0.007477	0.003662	-0.033722	-0.003662	-0.13062	-0.012665	0.011139	0.002136
24.812	0.005341	-0.086212	-0.059052	0.025024	0.008392	0.036011	0.079193	0.000916	0.009003	0.13626	0.013275	0.053864	0.2301	-0.2623	0.023804	-0.004272	0.028839	-0.052643	-0.41657	0.040741	-0.031281	0.044098	-0.13306	-0.058136	-0.012665	-0.001526	0.073395	0.003357	-0.06897	-0.076904	0.016785	-0.002289
24.813	-0.003052	-0.10757	-0.041809	0.00885	0.01358	-0.003357	0.088043	-0.001526	0.007935	-0.014954	0.009155	0.02121	0.78156	-0.31937	0.015411	-0.001373	0.035095	-0.085754	-0.37872	0.002594	-0.035858	0.082397	-0.024261	-0.068054	0.001678	0.006104	0.036774	-0.00412	0.097351	-0.10941	0.014648	-0.002899
24.814	0.008392	-0.075836	-0.024567	0.009308	0.033569	0.048523	0.03418	0.006561	-0.023651	-0.18326	0.015717	-0.009003	0.13016	-0.068054	0.017853	-0.005493	0.00412	-0.058136	-0.37521	-0.005341	-0.10498	0.063629	-0.028381	-0.10498	0.018311	0.000153	-0.16785	-0.004425	0.14618	-0.072937	0.011749	0.004578
24.815	0.012665	-0.022125	-0.022125	0.007172	0.027313	-0.017242	0.007477	0.013733	-0.023346	-0.16907	0.01236	-0.015411	-0.46829	0.27252	0.034332	-0.009155	-0.011444	-0.09613	-0.4007	-0.001678	-0.25787	0.012512	0.006256	-0.10025	0.001678	-0.001373	-0.22079	-0.004578	-0.1683	-0.069885	0.011749	0.004425
24.816	0.010223	-0.042419	0.005035	0.000305	0.031891	-0.000458	-0.021667	-0.002594	-0.033875	-0.10056	0.013733	-0.00473	-0.31693	0.2475	-0.014191	-0.020142	-0.026093	-0.094147	-0.32425	-0.026093	-0.12375	0.006104	-0.005188	-0.035248	0.02594	-0.006409	0.081787	0.007629	-0.12253	-0.045624	0.014191	-0.001678
24.817	0.006561	-0.002747	0.025787	-0.000916	0.027466	-0.026703	-0.005798	0.010071	-0.031891	-0.091705	-0.007019	-0.010681	-0.026245	0.16632	-0.004578	-0.018463	-0.046997	-0.061951	-0.28275	-0.006714	0.20401	-0.003052	-0.088196	0.024872	0.028839	-0.012512	0.36377	-0.005646	0.058594	-0.03891	0.008545	-0.007019
24.818	0.009308	0.003967	-0.008087	0.016632	0.020142	0.090027	-0.004883	0.005798	-0.007782	-0.077362	-0.003662	-0.001678	-0.72311	0.20065	0.038147	-0.008698	-0.032959	-0.027008	-0.27527	-0.00824	0.19974	-0.082245	-0.047302	-0.015717	0.022736	-0.004883	0.40283	-0.002136	-0.17593	0.013275	0.007782	-0.009766
24.819	-0.000305	-0.016632	0.006104	0.009918	0.024719	0.11231	-0.043793	0.003967	0.010223	-0.010681	-0.001831	0.010986	0.054016	0.20554	0.002747	0.015564	-0.011292	-0.041809	-0.23834	-0.005035	0.033112	-0.11932	-0.016632	-0.035248	0.036926	-0.012054	0.62408	-0.005188	-0.2124	-0.039063	0.007019	-0.016327
24.82	0.011749	-0.041656	-0.007324	0.024414	0.01236	-0.093536	-0.05249	0.009003	0.03006	0.053558	-0.002136	0.003662	0.15579	0.091858	-0.071106	0.003967	-0.005035	-0.071259	-0.30701	-0.010681	0.086823	-0.11093	0.020752	-0.066071	0.028076	0.00061	0.62073	0.009003	0.33371	-0.18662	0.010376	-0.015564
24.821	0.02655	-0.045624	-0.00061	0.003967	0.019531	-0.121	-0.018311	0.000763	0.037079	0.054016	0.007019	-0.000763	-0.16235	-0.027771	-0.010681	0.010529	0.010529	-0.074768	-0.28809	-0.009766	0.10956	-0.10696	0.002136	-0.10971	0.023193	-0.006714	0.61859	-0.002441	0.47104	-0.19272	0.012054	-0.005493
